<svg width="52" height="52" viewBox="0 0 52 52" fill="none" xmlns="http://www.w3.org/2000/svg">
<path d="M37.5687 11.8307C37.0545 11.8307 36.5518 11.9831 36.1242 12.2688C35.6967 12.5545 35.3634 12.9606 35.1666 13.4357C34.9698 13.9108 34.9183 14.4335 35.0187 14.9379C35.119 15.4422 35.3666 15.9055 35.7302 16.2691C36.0938 16.6327 36.5571 16.8804 37.0615 16.9807C37.5658 17.081 38.0886 17.0295 38.5637 16.8327C39.0388 16.636 39.4448 16.3027 39.7305 15.8751C40.0162 15.4476 40.1687 14.9449 40.1687 14.4307C40.1687 13.7411 39.8948 13.0798 39.4072 12.5922C38.9196 12.1046 38.2583 11.8307 37.5687 11.8307ZM47.5354 17.074C47.4932 15.2763 47.1565 13.4977 46.5387 11.809C45.9878 10.3641 45.1303 9.05575 44.0254 7.97398C42.9525 6.86341 41.6411 6.01137 40.1904 5.48232C38.5061 4.84567 36.7255 4.50127 34.9254 4.46398C32.6287 4.33398 31.892 4.33398 25.9987 4.33398C20.1054 4.33398 19.3687 4.33398 17.072 4.46398C15.2719 4.50127 13.4913 4.84567 11.807 5.48232C10.359 6.01672 9.04872 6.86803 7.97203 7.97398C6.86145 9.04687 6.00941 10.3583 5.48036 11.809C4.84371 13.4932 4.49932 15.2738 4.46203 17.074C4.33203 19.3707 4.33203 20.1073 4.33203 26.0007C4.33203 31.894 4.33203 32.6307 4.46203 34.9273C4.49932 36.7275 4.84371 38.5081 5.48036 40.1923C6.00941 41.643 6.86145 42.9544 7.97203 44.0273C9.04872 45.1333 10.359 45.9846 11.807 46.519C13.4913 47.1556 15.2719 47.5 17.072 47.5373C19.3687 47.6673 20.1054 47.6673 25.9987 47.6673C31.892 47.6673 32.6287 47.6673 34.9254 47.5373C36.7255 47.5 38.5061 47.1556 40.1904 46.519C41.6411 45.9899 42.9525 45.1379 44.0254 44.0273C45.1352 42.9496 45.9934 41.6401 46.5387 40.1923C47.1565 38.5036 47.4932 36.725 47.5354 34.9273C47.5354 32.6307 47.6654 31.894 47.6654 26.0007C47.6654 20.1073 47.6654 19.3707 47.5354 17.074ZM43.6354 34.6673C43.6196 36.0427 43.3705 37.4053 42.8987 38.6973C42.5528 39.6402 41.9971 40.4922 41.2737 41.189C40.5709 41.9051 39.7207 42.4596 38.782 42.814C37.4901 43.2858 36.1274 43.5349 34.752 43.5507C32.5854 43.659 31.7837 43.6807 26.0854 43.6807C20.387 43.6807 19.5854 43.6807 17.4187 43.5507C15.9906 43.5774 14.5687 43.3575 13.2154 42.9007C12.3179 42.5282 11.5066 41.975 10.832 41.2757C10.1129 40.5796 9.56419 39.7269 9.2287 38.784C8.69972 37.4735 8.40633 36.0799 8.36203 34.6673C8.36203 32.5007 8.23203 31.699 8.23203 26.0007C8.23203 20.3023 8.23203 19.5007 8.36203 17.334C8.37174 15.9279 8.62842 14.5345 9.12037 13.2173C9.5018 12.3028 10.0873 11.4876 10.832 10.834C11.4903 10.089 12.3038 9.49736 13.2154 9.10065C14.5361 8.62408 15.928 8.37499 17.332 8.36398C19.4987 8.36398 20.3004 8.23398 25.9987 8.23398C31.697 8.23398 32.4987 8.23398 34.6654 8.36398C36.0407 8.37976 37.4034 8.62885 38.6954 9.10065C39.68 9.46606 40.5637 10.0602 41.2737 10.834C41.9837 11.4995 42.5385 12.3132 42.8987 13.2173C43.3802 14.5367 43.6295 15.9295 43.6354 17.334C43.7437 19.5007 43.7654 20.3023 43.7654 26.0007C43.7654 31.699 43.7437 32.5007 43.6354 34.6673ZM25.9987 14.8857C23.8013 14.8899 21.6545 15.5455 19.8295 16.7694C18.0045 17.9933 16.5832 19.7307 15.7452 21.7621C14.9073 23.7935 14.6903 26.0277 15.1216 28.1823C15.5529 30.337 16.6132 32.3155 18.1685 33.8678C19.7239 35.4201 21.7044 36.4765 23.8599 36.9036C26.0154 37.3308 28.2491 37.1094 30.2789 36.2675C32.3086 35.4256 34.0433 34.0009 35.2636 32.1736C36.484 30.3462 37.1354 28.1981 37.1354 26.0007C37.1382 24.5384 36.852 23.09 36.2931 21.7387C35.7341 20.3875 34.9136 19.1601 33.8786 18.1271C32.8436 17.0941 31.6146 16.276 30.2623 15.7197C28.9099 15.1634 27.461 14.8799 25.9987 14.8857ZM25.9987 33.2157C24.5717 33.2157 23.1768 32.7925 21.9903 31.9997C20.8038 31.2069 19.879 30.0801 19.3329 28.7617C18.7868 27.4433 18.6439 25.9926 18.9223 24.5931C19.2007 23.1935 19.8879 21.9079 20.8969 20.8989C21.906 19.8898 23.1916 19.2027 24.5911 18.9243C25.9907 18.6459 27.4414 18.7888 28.7598 19.3349C30.0781 19.8809 31.205 20.8057 31.9978 21.9922C32.7906 23.1787 33.2137 24.5737 33.2137 26.0007C33.2137 26.9481 33.0271 27.8863 32.6645 28.7617C32.3019 29.6371 31.7705 30.4325 31.1005 31.1024C30.4305 31.7724 29.6351 32.3039 28.7598 32.6664C27.8844 33.029 26.9462 33.2157 25.9987 33.2157Z" fill="white"/>
</svg>
